<?xml version="1.0" standalone="no"?>
<!DOCTYPE svg PUBLIC "-//W3C//DTD SVG 20010904//EN"
 "http://www.w3.org/TR/2001/REC-SVG-20010904/DTD/svg10.dtd">
<svg version="1.0" xmlns="http://www.w3.org/2000/svg"
 width="77px" height="80px" viewBox="0 0 1000.000000 1080.000000"
 preserveAspectRatio="xMidYMid meet">
<metadata>
Created by potrace 1.16, written by Peter Selinger 2001-2019
</metadata>
    <!-- width: 77px;
    height: 80px; -->
<g transform="translate(0.000000,980.000000) scale(0.100000,-0.100000)"
fill="rgb(240 33 19)" stroke="none">
<path d="M2520 7476 c0 -2 160 -226 356 -496 195 -270 357 -497 359 -503 2 -7
-201 -160 -452 -342 -597 -433 -615 -446 -611 -450 2 -2 321 -65 708 -140
1131 -218 2552 -492 2855 -550 344 -66 1681 -326 1713 -332 l22 -5 0 -269 0
-269 28 0 c76 0 209 50 266 100 71 63 66 -15 67 1069 l1 981 -22 45 c-25 51
-81 100 -155 138 -135 67 -179 77 -1220 272 -253 48 -539 102 -635 120 -96 19
-350 68 -565 109 -366 70 -1148 221 -1845 356 -168 32 -424 82 -570 110 -146
28 -273 53 -282 56 -10 3 -18 3 -18 0z m1918 -841 c5 -6 56 -146 113 -312 57
-166 107 -296 110 -290 4 7 28 129 54 272 26 143 51 263 54 267 7 8 148 -15
158 -25 5 -6 -144 -818 -152 -825 -8 -8 -165 21 -173 32 -5 6 -55 144 -112
306 -56 162 -106 301 -110 309 -9 17 -5 37 -66 -294 -26 -137 -49 -253 -53
-257 -6 -6 -149 17 -158 26 -5 4 145 815 152 826 6 9 172 -23 183 -35z m982
-176 c157 -29 286 -53 288 -54 4 -4 -20 -132 -27 -143 -4 -6 -93 7 -211 29
-113 22 -210 39 -216 39 -9 0 -48 -160 -41 -166 1 -1 90 -18 197 -39 107 -20
196 -38 198 -40 8 -8 -20 -145 -30 -145 -6 0 -93 16 -195 35 -102 19 -188 35
-193 35 -8 0 -40 -150 -40 -187 0 -13 4 -23 9 -23 19 0 434 -79 438 -84 3 -3
-1 -37 -8 -75 -9 -55 -16 -71 -29 -71 -18 0 -613 110 -617 114 -3 3 146 805
152 824 3 7 13 11 22 8 10 -2 146 -28 303 -57z m495 -92 l60 -12 6 -75 c4 -41
10 -178 14 -304 l8 -229 103 259 c57 142 108 269 113 280 9 21 10 21 99 5 50
-9 93 -18 96 -21 3 -3 6 -143 7 -310 l2 -305 19 45 c39 92 222 515 225 519 5
7 173 -22 179 -30 3 -5 -337 -705 -382 -787 -3 -5 -152 21 -163 28 -5 3 -13
148 -17 323 l-7 318 -118 -292 c-65 -160 -121 -294 -123 -296 -6 -6 -140 17
-156 27 -6 4 -26 174 -50 436 -22 236 -40 433 -40 437 0 8 10 7 125 -16z"/>

</g>
</svg>
